<svg width="99" height="98" viewBox="0 0 99 98" fill="none" xmlns="http://www.w3.org/2000/svg">
<rect x="0.666748" width="98" height="98" rx="49" fill="url(#paint0_linear_708_1833)" fill-opacity="0.05"/>
<rect x="12.6667" y="12" width="74" height="74" rx="37" fill="url(#paint1_linear_708_1833)" fill-opacity="0.1"/>
<rect x="13.1667" y="12.5" width="73" height="73" rx="36.5" stroke="url(#paint2_linear_708_1833)" stroke-opacity="0.2"/>
<path d="M47.5457 53.1814C46.591 53.1814 46.0319 52.644 46.0319 51.6796V50.5637C42.0224 50.2881 38.0265 49.4615 33.8806 47.877V45.6038C38.9811 47.8633 44.0953 48.6624 49.6595 48.6624C55.2374 48.6624 60.3515 47.8633 65.452 45.6038V47.877C61.3062 49.4615 57.3103 50.2881 53.3008 50.5637V51.6796C53.3008 52.644 52.7416 53.1814 51.787 53.1814H47.5457ZM38.0947 62.3432H61.238C64.061 62.3432 65.452 60.9656 65.452 58.1412V44.7359C65.452 41.9115 64.061 40.5338 61.238 40.5338H38.0947C35.2853 40.5338 33.8806 41.9115 33.8806 44.7359V58.1412C33.8806 60.9656 35.2853 62.3432 38.0947 62.3432ZM42.7452 41.7324H44.859V39.2938C44.859 38.2467 45.4727 37.6543 46.5365 37.6543H52.7962C53.86 37.6543 54.46 38.2467 54.46 39.2938V41.7048H56.5739V39.4454C56.5739 36.8552 55.2237 35.6428 52.7553 35.6428H46.5637C44.2317 35.6428 42.7452 36.8552 42.7452 39.4454V41.7324Z" fill="#CAFF33"/>
<defs>
<linearGradient id="paint0_linear_708_1833" x1="49.6667" y1="0" x2="49.6667" y2="98" gradientUnits="userSpaceOnUse">
<stop stop-color="#CAFF33"/>
<stop offset="1" stop-color="#CAFF33" stop-opacity="0"/>
</linearGradient>
<linearGradient id="paint1_linear_708_1833" x1="49.6668" y1="-37" x2="49.6668" y2="203" gradientUnits="userSpaceOnUse">
<stop stop-color="#CAFF33"/>
<stop offset="0.467671" stop-color="#CAFF33" stop-opacity="0"/>
</linearGradient>
<linearGradient id="paint2_linear_708_1833" x1="49.6668" y1="-116.5" x2="49.6668" y2="153" gradientUnits="userSpaceOnUse">
<stop stop-color="#CAFF33"/>
<stop offset="0.716291" stop-color="#CAFF33" stop-opacity="0"/>
</linearGradient>
</defs>
</svg>
